{
  "asset": {
    "version": "2.0",
    "generator": "ModelConverterX"
  },
  "extensionsUsed": [
    "ASOBO_material_day_night_switch"
  ],
  "scene": 0,
  "scenes": [
    {
      "nodes": [
        0
      ]
    }
  ],
  "nodes": [
    {
      "name": "node0",
      "children": [
        1
      ]
    },
    {
      "name": "node1",
      "mesh": 0
    }
  ],
  "meshes": [
    {
      "primitives": [
        {
          "attributes": {
            "POSITION": 0,
            "NORMAL": 1,
            "TEXCOORD_0": 2
          },
          "indices": 3,
          "mode": 4,
          "material": 0
        }
      ],
      "name": "part000"
    }
  ],
  "accessors": [
    {
      "bufferView": 1,
      "byteOffset": 0,
      "componentType": 5126,
      "count": 3018,
      "type": "VEC3",
      "min": [
        5.0014901161193848,
        58.418281555175781,
        6.2093174272619058E-16
      ],
      "max": [
        6.232490062713623,
        58.780719757080078,
        0.82445001602172852
      ]
    },
    {
      "bufferView": 2,
      "byteOffset": 0,
      "componentType": 5126,
      "count": 3018,
      "type": "VEC3"
    },
    {
      "bufferView": 3,
      "byteOffset": 0,
      "componentType": 5126,
      "count": 3018,
      "type": "VEC2"
    },
    {
      "bufferView": 0,
      "byteOffset": 0,
      "componentType": 5125,
      "count": 7470,
      "type": "SCALAR"
    }
  ],
  "materials": [
    {
      "name": "material00",
      "pbrMetallicRoughness": {
        "baseColorFactor": [
          0.5,
          0.5,
          0.5,
          1.0
        ],
        "roughnessFactor": 1.0,
        "metallicFactor": 1.0,
        "baseColorTexture": {
          "index": 0
        }
      },
      "emissiveFactor": [
        0.0,
        0.0,
        0.0
      ],
      "extensions": {
        "ASOBO_material_day_night_switch": {
          "enabled": true
        }
      }
    }
  ],
  "textures": [
    {
      "source": 0,
      "name": "combinaci贸ndecapa_1-texturadifusi贸n"
    }
  ],
  "images": [
    {
      "uri": "combinaci贸ndecapa_1-texturadifusi贸n.png"
    }
  ],
  "bufferViews": [
    {
      "buffer": 0,
      "byteOffset": 0,
      "byteLength": 29880
    },
    {
      "buffer": 0,
      "byteOffset": 29880,
      "byteLength": 36216,
      "byteStride": 12
    },
    {
      "buffer": 0,
      "byteOffset": 66096,
      "byteLength": 36216,
      "byteStride": 12
    },
    {
      "buffer": 0,
      "byteOffset": 102312,
      "byteLength": 24144,
      "byteStride": 8
    }
  ],
  "buffers": [
    {
      "byteLength": 126456,
      "uri": "Colaptes_rubiginosus-removebg-preview.bin"
    }
  ]
}